<svg xmlns="http://www.w3.org/20event/svg" viewBox="0 0 250 250">
    <path fill="#019df4" d="M125,0C55.96,0,0,55.96,0,125s55.96,125,125,125s125-55.96,125-125S194.04,0,125,0z"/>
    <path fill="#fff" d="M68.75,150c0-31.02,25.23-56.25,56.25-56.25S181.25,118.98,181.25,150h-37.5c0-10.33-8.42-18.75-18.75-18.75
        S106.25,139.67,106.25,150H68.75z"/>
    <path fill="#fff" d="M125,87.5c-34.46,0-62.5,28.04-62.5,62.5h-25C37.5,101.78,76.78,62.5,125,62.5s87.5,39.28,87.5,87.5h-25
        C187.5,115.54,159.46,87.5,125,87.5z"/>
</svg>
